<?xml version="1.0" encoding="UTF-8"?>
<svg version="1.1" xmlns="http://www.w3.org/2000/svg" width="494" height="494">
<path d="M0 0 C163.02 0 326.04 0 494 0 C494 163.02 494 326.04 494 494 C330.98 494 167.96 494 0 494 C0 330.98 0 167.96 0 0 Z " fill="#FBFCFC" transform="translate(0,0)"/>
<path d="M0 0 C1.30899295 0.45961084 2.61893103 0.91653667 3.9296875 1.37109375 C4.60999023 1.60812012 5.29029297 1.84514648 5.99121094 2.08935547 C9.67532577 3.33790789 13.39596216 4.45673499 17.125 5.5625 C17.81835449 5.77285889 18.51170898 5.98321777 19.22607422 6.19995117 C23.51157826 7.46389054 27.69169525 8.19161948 32.125 8.8125 C34.14223344 9.77726382 36.14112292 10.78088392 38.125 11.8125 C40.36762502 12.47771915 42.61019738 13.105571 44.87890625 13.67578125 C49.01527413 15.76914308 51.3850127 18.82088438 52.9699707 23.08666992 C53.7280366 25.79375011 54.37815636 28.50844455 55 31.25 C55.50370459 33.32001433 56.01164131 35.38900265 56.5234375 37.45703125 C56.91354004 39.03991943 56.91354004 39.03991943 57.31152344 40.65478516 C58.59347182 45.63099174 60.09890679 50.53163187 61.625 55.4375 C63.9261397 62.8764801 66.1750839 70.32465764 68.3125 77.8125 C68.53808594 78.59963379 68.76367188 79.38676758 68.99609375 80.19775391 C70.38120225 85.07281239 71.69782247 89.96334698 72.9921875 94.86328125 C75.02128289 102.52813736 77.21068947 110.14345461 79.41467285 117.75952148 C82.61808453 128.83836415 85.74263844 139.90808139 88.42895508 151.12573242 C89.98629792 157.5224331 91.91092065 163.77564828 93.98339844 170.0234375 C95.30424297 174.03851497 96.45769822 178.04855771 97.45703125 182.15625 C98.76440835 187.50784811 100.23291406 192.80002253 101.75390625 198.09375 C101.99079163 198.92084473 102.227677 199.74793945 102.47174072 200.60009766 C103.45670463 204.03589175 104.44342872 207.47113184 105.43920898 210.90380859 C106.17515531 213.44459286 106.90258996 215.98769856 107.62890625 218.53125 C107.84978409 219.28474731 108.07066193 220.03824463 108.29823303 220.8145752 C109.54805385 225.21740952 110.46573655 229.58991643 111.19932556 234.10949707 C111.46166693 235.71580364 111.46166693 235.71580364 111.72930813 237.35456085 C111.85988645 238.16568077 111.99046476 238.97680069 112.125 239.8125 C112.98014254 239.80973462 113.83528507 239.80696924 114.71634102 239.80412006 C135.52301081 239.73786953 156.32966242 239.68822393 177.13641548 239.65706348 C187.19840406 239.64159404 197.26032223 239.62050299 207.32226562 239.58618164 C216.09216607 239.55628172 224.86201552 239.53692556 233.63196552 239.53023452 C238.27567473 239.52632327 242.91923808 239.51712963 247.56290054 239.49530983 C251.93442561 239.47493534 256.30574481 239.46866815 260.67731285 239.47317696 C262.28091107 239.47235219 263.88451622 239.46639222 265.48807335 239.45488358 C267.6801364 239.43992402 269.87142555 239.4435585 272.06350708 239.45173645 C273.90248408 239.44758838 273.90248408 239.44758838 275.77861214 239.44335651 C280.86942318 240.00492911 284.078104 241.65540442 287.5 245.4375 C289.5825319 249.76275857 290.07608068 253.09809146 289.125 257.8125 C286.86691017 262.61556812 283.86739802 265.4470292 279.125 267.8125 C276.56127782 268.09483969 274.2451368 268.2184066 271.68591309 268.19345093 C270.94604581 268.1981309 270.20617854 268.20281087 269.44389105 268.20763266 C266.96957209 268.21958001 264.49580726 268.21012668 262.02148438 268.20068359 C260.24562762 268.20474942 258.46977339 268.21009136 256.69392395 268.21661377 C251.87372703 268.23029189 247.05372271 268.22498666 242.23352242 268.21547651 C237.18965256 268.20788251 232.14579922 268.21492481 227.10192871 268.21963501 C218.63156167 268.22509331 210.1612731 268.21789898 201.69091797 268.20361328 C191.89731925 268.18728664 182.10390788 268.19257509 172.3103137 268.2090925 C163.90254471 268.22270522 155.49483213 268.22462807 147.08705568 268.21677649 C142.06510122 268.21209881 137.04323482 268.21147777 132.02128601 268.22138596 C127.30001235 268.23005021 122.57898032 268.22404357 117.85773277 268.20670319 C116.12472116 268.20273546 114.39168922 268.20387729 112.65868568 268.21049118 C110.29354464 268.21868556 107.92917854 268.20841113 105.56408691 268.19345093 C104.87780008 268.20014309 104.19151324 268.20683526 103.48442984 268.21373022 C98.29556023 268.15004034 95.29490649 266.64781774 91.40234375 263.35546875 C87.25076336 258.34056278 86.37865695 249.8910179 84.88256836 243.71826172 C83.09894249 236.47715072 80.96603916 229.34606293 78.84399414 222.19824219 C76.38643046 213.86005615 74.16709729 205.47291552 72.07861328 197.03491211 C71.85028809 196.1300708 71.62196289 195.22522949 71.38671875 194.29296875 C71.19037842 193.49785889 70.99403809 192.70274902 70.79174805 191.88354492 C70.14199314 189.54220578 70.14199314 189.54220578 68.125 186.8125 C67.66796875 184.74609375 67.66796875 184.74609375 67.3125 182.25 C66.47893329 177.22953624 65.2511849 172.41634906 63.85961914 167.53051758 C63.40711233 165.92198374 62.95481703 164.31339039 62.50271606 162.70474243 C62.27277576 161.88966343 62.04283546 161.07458443 61.80592728 160.23480606 C60.75417738 156.49334901 59.72337786 152.74619934 58.69311523 148.9987793 C58.28190569 147.50557591 57.87064499 146.01238662 57.45933533 144.51921082 C57.25148848 143.76437094 57.04364162 143.00953106 56.82949638 142.23181725 C55.45670945 137.24759765 54.08184973 132.26394925 52.70741177 127.28018475 C51.51208287 122.94543231 50.31745678 118.61048842 49.12426758 114.27514648 C47.95308064 110.01991171 46.77998214 105.76520791 45.6056385 101.51084328 C45.1644745 99.9113203 44.72397595 98.31161361 44.2842083 96.71170616 C41.40566896 86.24117089 38.35376848 75.84567156 35.07298279 65.49272156 C32.93814491 58.75317374 31.107769 51.9906468 29.51953125 45.10424805 C28.7427344 41.83590795 28.01331005 39.64496507 26.125 36.8125 C24.2702649 35.96411384 24.2702649 35.96411384 22.07421875 35.453125 C20.82318359 35.11559204 20.82318359 35.11559204 19.546875 34.77124023 C18.64453125 34.53735596 17.7421875 34.30347168 16.8125 34.0625 C14.9092159 33.54118148 13.00689633 33.01633101 11.10546875 32.48828125 C10.12239746 32.21580566 9.13932617 31.94333008 8.12646484 31.66259766 C3.26181728 30.28479525 -1.56191412 28.79747372 -6.375 27.25 C-7.25196533 26.98155273 -8.12893066 26.71310547 -9.0324707 26.43652344 C-14.96801687 24.49956944 -18.74230084 22.21311482 -22.15625 16.76953125 C-23.50702903 13.09159486 -23.6292813 9.64837498 -22.875 5.8125 C-17.37548326 -3.53841332 -9.62459135 -3.48328751 0 0 Z " fill="#1F325B" transform="translate(73.875,81.1875)"/>
<path d="M0 0 C6.44110602 -0.10162708 12.8820044 -0.17156052 19.32373047 -0.21972656 C21.51391324 -0.23981107 23.70404259 -0.26708417 25.89404297 -0.30175781 C29.04668376 -0.35041409 32.19861404 -0.37300078 35.3515625 -0.390625 C36.32678864 -0.41127014 37.30201477 -0.43191528 38.30679321 -0.45318604 C44.04932199 -0.45507083 47.50508053 0.04675536 52 4 C54.48538738 7.72808107 54.26637782 9.57906289 54 14 C52.0999631 23.08713301 48.73739659 31.9764071 45.72631836 40.74853516 C43.66902597 46.79297991 41.83556569 52.89221106 40.05055237 59.02128601 C37.57246567 67.50983778 34.96097809 75.95647584 32.34326172 84.40283203 C31.4988877 87.12859067 30.65755127 89.85527468 29.81640625 92.58203125 C27.36962211 100.49499435 24.89823294 108.39277696 22.2421875 116.23828125 C20.6969601 120.81659423 19.31816495 125.37688633 18.13793945 130.06054688 C16.28945449 137.27500509 14.60877294 142.00979747 8 146 C4.53128471 147.73435764 0.51044415 147.14714798 -3.30810547 147.14526367 C-4.27423264 147.14862228 -5.2403598 147.1519809 -6.23576355 147.15544128 C-9.44625113 147.164978 -12.65668661 147.16689639 -15.8671875 147.16796875 C-18.10002667 147.17118172 -20.33286562 147.17454582 -22.56570435 147.17805481 C-27.25832608 147.18405447 -31.95092939 147.18589408 -36.64355469 147.18530273 C-42.63300364 147.18520158 -48.62233279 147.19880114 -54.61175346 147.21607494 C-59.23083021 147.22724599 -63.84987858 147.2292203 -68.46896744 147.22869301 C-70.67517633 147.22986746 -72.8813861 147.234259 -75.08758163 147.24202538 C-89.07691788 147.28662237 -102.27937507 147.15357601 -115.5625 142.25 C-116.28574463 141.98759521 -117.00898926 141.72519043 -117.75415039 141.45483398 C-123.83857345 139.18309006 -129.48727167 136.44872104 -135 133 C-135.82628906 132.48953125 -136.65257812 131.9790625 -137.50390625 131.453125 C-149.19931261 123.76600345 -157.6378522 113.71316275 -165 102 C-165.56589844 101.10667969 -166.13179687 100.21335937 -166.71484375 99.29296875 C-171.21503099 91.65524638 -173.62620037 83.48326003 -176 75 C-176.27154907 74.08577271 -176.27154907 74.08577271 -176.54858398 73.15307617 C-180.01523089 56.61853911 -178.51086341 33.82537497 -170 19 C-169.29094062 17.01463373 -168.60578253 15.01927511 -168 13 C-167.34 13 -166.68 13 -166 13 C-165.896875 12.236875 -165.79375 11.47375 -165.6875 10.6875 C-164.92969953 7.72518908 -164.35094445 6.86758839 -162 5 C-155.21198841 3.50616405 -148.69802658 6.12072431 -142.4375 8.5 C-141.52419922 8.83386719 -140.61089844 9.16773438 -139.66992188 9.51171875 C-137.44153202 10.32840613 -135.21887637 11.15788283 -133 12 C-134.61548019 16.46109666 -136.64662704 18.64662704 -140 22 C-149.57808586 35.93176125 -150.05808247 53.84088464 -147.4453125 70.09765625 C-143.7921198 85.24970787 -133.57370082 99.02021043 -120.8125 107.6875 C-106.00528289 116.71226133 -88.57218854 119.89493726 -71.51953125 116.1640625 C-60.68339026 113.26624993 -51.38826671 107.6363562 -42.75 100.5625 C-39.37350047 97.98047094 -36.49201944 96.91210097 -32.234375 96.69921875 C-28.08369385 97.25796429 -25.1920313 99.41299424 -22 102 C-21.030625 102.78375 -20.06125 103.5675 -19.0625 104.375 C-16.45225296 107.6971326 -16 109.7939174 -16 114 C-17.4375 116.9375 -17.4375 116.9375 -19 119 C-15.37 118.67 -11.74 118.34 -8 118 C-6.70715771 113.81286205 -5.41593632 109.62522594 -4.125 105.4375 C-3.76019531 104.25607422 -3.39539063 103.07464844 -3.01953125 101.85742188 C-0.96281543 95.1943725 -0.96281543 95.1943725 0.98828125 88.5 C2.63218152 82.81299364 4.49003257 77.19439167 6.3125 71.5625 C10.98560859 57.07315892 15.52262767 42.55146007 20 28 C10.43 28 0.86 28 -9 28 C-8.34324408 24.71622042 -7.70704879 21.87224768 -6.66015625 18.75 C-6.2724707 17.58984375 -6.2724707 17.58984375 -5.87695312 16.40625 C-5.47379883 15.21515625 -5.47379883 15.21515625 -5.0625 14 C-4.79759766 13.2059375 -4.53269531 12.411875 -4.25976562 11.59375 C-2.94487005 7.67842818 -1.555414 3.82768188 0 0 Z " fill="#97C937" transform="translate(356,159)"/>
<path d="M0 0 C6.29064536 -0.1006999 12.58079728 -0.17230967 18.87207031 -0.21972656 C21.00138544 -0.23954306 23.13064848 -0.26660416 25.25976562 -0.30175781 C60.47220846 -0.86755321 91.7228065 7.8132443 117.71264648 32.31469727 C124.14896834 38.58543485 129.22622632 45.37088505 134 53 C134.69996094 54.11246094 135.39992188 55.22492188 136.12109375 56.37109375 C141.48960957 65.18470018 148 76.46906636 148 87 C148.97582031 86.71125 149.95164062 86.4225 150.95703125 86.125 C152.24212615 85.74978981 153.52728581 85.37480138 154.8125 85 C156.07707031 84.62875 157.34164062 84.2575 158.64453125 83.875 C162 83 162 83 165 83 C162.98583226 89.5650981 160.12342568 95.76031188 157.36523438 102.03710938 C154.9422716 107.61274584 152.80705547 113.19446727 151 119 C150.34 119 149.68 119 149 119 C148.34 121.64 147.68 124.28 147 127 C137.91138213 124.72784553 130.0230518 117.66301286 122.4375 112.34765625 C120.01430361 110.67076481 117.55589852 109.06666645 115.0625 107.49609375 C114.41579346 107.08858887 113.76908691 106.68108398 113.1027832 106.26123047 C111.84486885 105.47393162 110.58307473 104.6927915 109.31713867 103.91845703 C107.84454005 102.99721647 106.41690611 102.00479249 105 101 C105 100.34 105 99.68 105 99 C109.95 97.68 114.9 96.36 120 95 C119.52999973 88.88999655 118.16875395 84.45479712 115.3125 79.0625 C114.95091797 78.36374756 114.58933594 77.66499512 114.21679688 76.94506836 C102.77103939 55.15001644 84.59493832 39.77925263 61 32.3125 C48.91933661 29.05058399 37.25544326 28.59141862 24.8125 28.375 C22.98370696 28.33674141 21.15493043 28.29768535 19.32617188 28.2578125 C14.88425141 28.1626797 10.44224702 28.07834202 6 28 C5.88027832 27.29294922 5.76055664 26.58589844 5.63720703 25.85742188 C4.6635468 20.28126127 3.52122806 14.91426118 1.875 9.5 C0 3.31386861 0 3.31386861 0 0 Z " fill="#97C838" transform="translate(150,128)"/>
<path d="M0 0 C11.93023576 9.72152995 11.93023576 9.72152995 13.6796875 14.51953125 C14.00946475 19.01491588 12.17963852 22.45109506 9.43359375 25.8125 C5.68557314 29.56052061 1.88661018 31.55308669 -3.421875 32.10546875 C-9.7040422 31.8383698 -13.61438142 27.31076738 -18.109375 23.35546875 C-27.03141888 16.29859353 -39.40737477 12.17260223 -50.671875 11.91796875 C-56.54176325 11.71165749 -58.86064789 10.6404287 -62.86328125 6.45703125 C-65.80329245 3.70620338 -69.02567087 1.76778179 -72.484375 -0.26953125 C-73.45600586 -0.84272095 -73.45600586 -0.84272095 -74.44726562 -1.42749023 C-79.5548775 -4.39600031 -84.75804492 -7.13884963 -90.109375 -9.64453125 C-88.77604167 -10.31119792 -87.44270833 -10.97786458 -86.109375 -11.64453125 C-85.18640625 -12.14597656 -84.2634375 -12.64742188 -83.3125 -13.1640625 C-57.25089227 -25.20961046 -21.97357022 -16.36749269 0 0 Z " fill="#1E315B" transform="translate(325.109375,140.64453125)"/>
<path d="M0 0 C0.55042969 0.391875 1.10085937 0.78375 1.66796875 1.1875 C2.71984375 1.909375 3.77171875 2.63125 4.85546875 3.375 C10.43521786 8.95474911 12.96604595 13.82737102 13.16796875 21.8125 C12.80142232 29.90471733 10.27789231 35.41438927 4.80859375 41.3203125 C-1.30171624 46.65010844 -8.55962951 49.10210895 -16.62890625 48.6640625 C-23.30203131 47.48758669 -28.55714675 44.64542028 -32.76953125 39.3125 C-38.09900239 31.20506091 -39.50213697 24.31137892 -37.93359375 14.76171875 C-35.90136918 7.1210822 -30.71517883 2.35271445 -24.20703125 -1.8125 C-16.66148587 -4.46645044 -6.85972949 -4.2123712 0 0 Z " fill="#1C2F59" transform="translate(213.33203125,361.8125)"/>
<path d="M0 0 C5.50235859 5.62741219 8.04834247 10.46286112 8.25 18.4375 C7.90360309 26.2770091 5.76517966 31.38076887 0.5 37.23828125 C-6.01744447 43.1010717 -13.56147048 44.1118853 -22.015625 44.02734375 C-27.53608293 43.66064667 -30.69524351 42.15031372 -34.9375 38.5 C-41.41520918 30.97185149 -43.81053042 24.97455591 -43.62109375 15.1015625 C-42.73958119 7.28857748 -38.26128265 2.00139498 -32.27734375 -2.8125 C-21.86372467 -9.87530138 -9.56543245 -6.43827184 0 0 Z " fill="#9ACA38" transform="translate(340.25,365.1875)"/>
<path d="M0 0 C7.44130253 -0.06971429 14.88253386 -0.12291946 22.32409763 -0.15543652 C25.78006646 -0.17104837 29.23581075 -0.19220356 32.69165039 -0.22631836 C36.67070772 -0.26534939 40.64967622 -0.27974632 44.62890625 -0.29296875 C45.86145645 -0.30845261 47.09400665 -0.32393646 48.36390686 -0.33988953 C54.68997718 -0.34112453 59.42603764 -0.09982384 65 3 C61.58497647 4.13518511 59.26720993 3.81385846 55.76953125 3.1015625 C45.16260999 1.33547375 34.41431581 1.5296556 23.6875 1.375 C21.48240774 1.3367436 19.2773292 1.29768766 17.07226562 1.2578125 C11.71496709 1.16265458 6.35758336 1.07737452 1 1 C0.67 1.66 0.34 2.32 0 3 C0 2.01 0 1.02 0 0 Z " fill="#D8E5B5" transform="translate(149,127)"/>
<path d="M0 0 C0.66 0 1.32 0 2 0 C3.60725635 3.21451269 3.05748185 6.43612536 3 10 C5.31 10 7.62 10 10 10 C10 10.66 10 11.32 10 12 C5.64722617 14.05547653 5.64722617 14.05547653 2.8125 13.8125 C1 13 1 13 -1 10 C-1.23046875 7.7734375 -1.23046875 7.7734375 -1.1875 5.375 C-1.17783203 4.18003906 -1.17783203 4.18003906 -1.16796875 2.9609375 C-1 1 -1 1 0 0 Z " fill="#162851" transform="translate(53,88)"/>
<path d="M0 0 C9.57 0 19.14 0 29 0 C27.84093544 5.21579054 26.68322585 10.38906143 25.375 15.5625 C25.11460937 16.59503906 24.85421875 17.62757813 24.5859375 18.69140625 C24.39257812 19.45324219 24.19921875 20.21507812 24 21 C23.67 21 23.34 21 23 21 C23.63264408 14.46267786 24.69184826 8.54075871 26 2 C13.13 1.505 13.13 1.505 0 1 C0 0.67 0 0.34 0 0 Z " fill="#E8F1D3" transform="translate(347,187)"/>
<path d="M0 0 C0.81597656 -0.01224609 1.63195312 -0.02449219 2.47265625 -0.03710938 C3.65794922 -0.04000977 3.65794922 -0.04000977 4.8671875 -0.04296875 C5.5876123 -0.04707764 6.30803711 -0.05118652 7.05029297 -0.05541992 C9.42938021 0.22313878 11.05521855 1.01097118 13.125 2.1875 C12.795 2.8475 12.465 3.5075 12.125 4.1875 C0.74 3.6925 0.74 3.6925 -10.875 3.1875 C-10.875 2.5275 -10.875 1.8675 -10.875 1.1875 C-7.4994732 -0.5002634 -3.70876289 0.00290201 0 0 Z " fill="#12244C" transform="translate(288.875,126.8125)"/>
<path d="M0 0 C0.1875 2.375 0.1875 2.375 0 5 C-3 7 -3 7 -5.2265625 6.828125 C-6.01804688 6.63734375 -6.80953125 6.4465625 -7.625 6.25 C-8.42164063 6.06953125 -9.21828125 5.8890625 -10.0390625 5.703125 C-12 5 -12 5 -13 3 C-8.85159786 1.11436266 -4.59706715 0 0 0 Z " fill="#1E2C50" transform="translate(248,127)"/>
<path d="M0 0 C0.69738281 0.00902344 1.39476562 0.01804687 2.11328125 0.02734375 C3.82566958 0.05080112 5.53788004 0.08666896 7.25 0.125 C7.91 1.445 8.57 2.765 9.25 4.125 C8.5384375 3.96257812 7.826875 3.80015625 7.09375 3.6328125 C4.24661151 3.12439491 1.63895309 2.99188496 -1.25 3 C-2.1678125 2.99742187 -3.085625 2.99484375 -4.03125 2.9921875 C-6.70004454 3.12255965 -9.14865153 3.53121394 -11.75 4.125 C-11.75 3.465 -11.75 2.805 -11.75 2.125 C-8.00764681 -0.32489101 -4.30774581 -0.10586143 0 0 Z " fill="#EBF3D0" transform="translate(323.75,356.875)"/>
<path d="M0 0 C2.91589609 4.37384413 4.30254716 7.70542471 4 13 C0.00999834 14.42500059 -3.80530429 15.40075776 -8 16 C-6.37633534 12.75267068 -3.24612161 12.29844864 0 11 C0 7.37 0 3.74 0 0 Z " fill="#E2F1C9" transform="translate(267,210)"/>
<path d="M0 0 C1.66666667 0 3.33333333 0 5 0 C4.67 4.29 4.34 8.58 4 13 C0.72220127 9.72220127 0.59505966 9.1639187 0.3125 4.8125 C0.24675781 3.91144531 0.18101562 3.01039063 0.11328125 2.08203125 C0.07589844 1.39496094 0.03851563 0.70789063 0 0 Z " fill="#19294F" transform="translate(155,306)"/>
<path d="M0 0 C0.33 0 0.66 0 1 0 C1 3.3 1 6.6 1 10 C0.34 10 -0.32 10 -1 10 C-1 16.93 -1 23.86 -1 31 C-1.33 31 -1.66 31 -2 31 C-2.05847045 27.14589793 -2.09375405 23.29191135 -2.125 19.4375 C-2.14175781 18.35146484 -2.15851563 17.26542969 -2.17578125 16.14648438 C-2.21098659 10.35520558 -1.98923674 5.45865358 0 0 Z " fill="#EAF3D2" transform="translate(209,194)"/>
<path d="M0 0 C13.6332574 -0.55353075 13.6332574 -0.55353075 20 3 C15.69577494 4.31052767 12.0629466 3.45785552 7.75 2.5625 C7.00492188 2.41490234 6.25984375 2.26730469 5.4921875 2.11523438 C3.65992335 1.7511306 1.82973947 1.37658591 0 1 C0 0.67 0 0.34 0 0 Z " fill="#E2EEC3" transform="translate(194,127)"/>
<path d="M0 0 C0.66 0.33 1.32 0.66 2 1 C2 4.96 2 8.92 2 13 C1.01 13 0.02 13 -1 13 C-1.02696365 11.20841511 -1.04637917 9.41671527 -1.0625 7.625 C-1.07410156 6.62726563 -1.08570313 5.62953125 -1.09765625 4.6015625 C-1 2 -1 2 0 0 Z " fill="#13234A" transform="translate(152,204)"/>
<path d="M0 0 C0.33 0 0.66 0 1 0 C1 3.63 1 7.26 1 11 C-0.32 11 -1.64 11 -3 11 C-2.32829194 7.1936543 -1.27253436 3.64793184 0 0 Z " fill="#13244F" transform="translate(166,329)"/>
<path d="M0 0 C0.33 0 0.66 0 1 0 C1 4.29 1 8.58 1 13 C0.01 13 -0.98 13 -2 13 C-1.85966889 11.02043559 -1.7125877 9.04134859 -1.5625 7.0625 C-1.48128906 5.96035156 -1.40007812 4.85820312 -1.31640625 3.72265625 C-1 1 -1 1 0 0 Z " fill="#14244B" transform="translate(110,130)"/>
<path d="M0 0 C0.98120464 3.05263664 0.98120464 4.94736336 0 8 C-1.9375 7.3125 -1.9375 7.3125 -4 6 C-4.75 3.375 -4.75 3.375 -5 1 C-2 0 -2 0 0 0 Z " fill="#14244C" transform="translate(183,393)"/>
<path d="M0 0 C0.33 0.66 0.66 1.32 1 2 C4.41656024 2.16677282 4.41656024 2.16677282 8 2 C8.66 1.34 9.32 0.68 10 0 C9.67 1.65 9.34 3.3 9 5 C5.37 5 1.74 5 -2 5 C-1.34 3.35 -0.68 1.7 0 0 Z " fill="#E2F0C3" transform="translate(339,273)"/>
<path d="M0 0 C0.66 0 1.32 0 2 0 C2 3.3 2 6.6 2 10 C1.01 10 0.02 10 -1 10 C-1.02689216 8.52093108 -1.04634621 7.04172517 -1.0625 5.5625 C-1.07410156 4.73878906 -1.08570313 3.91507812 -1.09765625 3.06640625 C-1 1 -1 1 0 0 Z " fill="#0E1D44" transform="translate(53,88)"/>
<path d="M0 0 C0.99 0.495 0.99 0.495 2 1 C3.36817102 7.04275534 3.36817102 7.04275534 2.0625 10.4375 C1.711875 10.953125 1.36125 11.46875 1 12 C-0.26237731 9.47524538 -0.09856404 7.68799534 -0.0625 4.875 C-0.05347656 3.96492188 -0.04445313 3.05484375 -0.03515625 2.1171875 C-0.02355469 1.41851562 -0.01195312 0.71984375 0 0 Z " fill="#15274C" transform="translate(359,328)"/>
<path d="M0 0 C2.54864504 3.82296756 4.24172564 7.70360643 3.75 12.375 C3 14 3 14 1 15 C1.020625 13.824375 1.04125 12.64875 1.0625 11.4375 C1.06947261 7.52586533 0.64250343 3.85502056 0 0 Z " fill="#5E6B86" transform="translate(150,191)"/>
<path d="M0 0 C0.66 0.33 1.32 0.66 2 1 C1.04882866 2.1725131 0.08882991 3.33787015 -0.875 4.5 C-1.40867187 5.1496875 -1.94234375 5.799375 -2.4921875 6.46875 C-2.98976563 6.9740625 -3.48734375 7.479375 -4 8 C-4.66 8 -5.32 8 -6 8 C-4.55746343 4.63408134 -2.66735273 2.48952921 0 0 Z " fill="#AED260" transform="translate(307,363)"/>
<path d="M0 0 C3.63 0 7.26 0 11 0 C9.68 0.99 8.36 1.98 7 3 C3.25 2.1875 3.25 2.1875 0 1 C0 0.67 0 0.34 0 0 Z " fill="#14254B" transform="translate(70,106)"/>
<path d="M0 0 C0.33 0 0.66 0 1 0 C1 2.31 1 4.62 1 7 C0.01 7.495 0.01 7.495 -1 8 C-1.625 5.125 -1.625 5.125 -2 2 C-1.34 1.34 -0.68 0.68 0 0 Z " fill="#13234C" transform="translate(118,164)"/>
<path d="M0 0 C2.97 0 5.94 0 9 0 C9 0.66 9 1.32 9 2 C6.08517222 2.80967438 4.53886783 3.21845993 1.6875 2.0625 C1.130625 1.711875 0.57375 1.36125 0 1 C0 0.67 0 0.34 0 0 Z " fill="#142550" transform="translate(294,154)"/>
<path d="M0 0 C2.76223278 2.76223278 2.57856291 5.20706617 3 9 C2.01 8.34 1.02 7.68 0 7 C-0.1875 3.375 -0.1875 3.375 0 0 Z " fill="#BDC4CE" transform="translate(107,141)"/>
</svg>
